<svg xmlns="http://www.w3.org/2000/svg" viewBox="0 0 839.74 1045.45"><defs><style>.cls-1{fill:#0b3f6c;}.cls-2{fill:#cc911b;}</style></defs><title>logo</title><g id="LOGO"><path class="cls-1" d="M1452,299.06H612.26s0,0,0,0L648.2,361.7v0l8.55,14.89h750.73Z" transform="translate(-612.26 -16.3)"/><path class="cls-1" d="M933.55,852.73v0l120.66,209h0l322.13-557.93v0l.46-.8H1154.69Z" transform="translate(-612.26 -16.3)"/><path class="cls-2" d="M1061,387.88H657.67s0,0,0,0l52,90.06H949L829.36,685.24s0,0,0,0L870,755.71" transform="translate(-612.26 -16.3)"/><path class="cls-2" d="M878.42,762.31l42.71,74h0l221-349.56a0,0,0,0,0,0,0h0l1.33-2.11h0l-1.33,2.11h222l52.72-91.32H1068.51" transform="translate(-612.26 -16.3)"/><path class="cls-1" d="M674.15,496.72h0L793.58,703.61h0L913,496.73H674.15Z" transform="translate(-612.26 -16.3)"/></g><g id="TEXT"><path class="cls-1" d="M1103.54,35.07V16.3h81.32V35.07Zm0,284V300.3h81.32v18.77Zm72.56-73.72q0,15.35-8.15,26.49T1143.49,283q-16.66,0-25.18-10.59t-8.52-27V88.24q0-15.7,9.06-25.94t24.64-10.23q17,0,24.82,10.78t7.79,25.39v36.9h-27.52V83.86q0-7.68-4.82-7.67c-3.47,0-5.19,2.55-5.19,7.67V248.27a21.17,21.17,0,0,0,.93,6.76c.61,1.83,2.16,2.74,4.63,2.74a3.46,3.46,0,0,0,3.71-2.74,26.4,26.4,0,0,0,.74-6.76V207.72h27.52Z" transform="translate(-612.26 -16.3)"/><path class="cls-1" d="M1176.1,35.07V16.3h46.29V35.07Zm0,284V300.3h46.29v18.77Zm7.51-53.8V53.83h28.77V265.27Z" transform="translate(-612.26 -16.3)"/><path class="cls-1" d="M1214.89,35.07V16.3h81.32V35.07Zm0,284V300.3h81.32v18.77Zm30.39-53.8q-12.81,0-18.47-9t-5.67-23.59V120q0-13.82,6.26-22.38T1245.84,89a17.55,17.55,0,0,1,7.87,1.46,25.89,25.89,0,0,1,5,3.27l.72-3.64h26.75V241.5h6.25v23.77Zm13.39-145q0-7.65-5.19-7.65a3.74,3.74,0,0,0-3.89,2.37,14.35,14.35,0,0,0-.92,5.28V232.88a13,13,0,0,0,.92,5.1c.62,1.46,1.91,2.18,3.89,2.18a4.24,4.24,0,0,0,3.9-2.18,9.86,9.86,0,0,0,1.29-5.1Z" transform="translate(-612.26 -16.3)"/><path class="cls-1" d="M1285,35.07V16.3H1375V35.07Zm0,284V300.3H1375v18.77Zm50-53.8v-145q0-7.65-4.82-7.65-5.19,0-5.19,7.65v145h-28.77V90.11h27.9l.36,3.28a14.51,14.51,0,0,1,5.31-3.09,22.65,22.65,0,0,1,7.86-1.28q13.9,0,19.39,9.65t5.49,23.49V265.27Z" transform="translate(-612.26 -16.3)"/><path class="cls-2" d="M1091,199.34v14.27c0,44.7-18.15,68.48-59.12,68.48-36.6,0-57.87-23.14-59.12-64.36h34.45c1.28,19.52,8.67,27.71,22.8,27.71,17.35,0,23.45-10.08,23.45-32.75v-12c0-22.67-9.63-29.28-26.66-29.28H1006V145.68l33.47-55.57h-61V56.33H1086V81.07l-37.53,61.19C1075.7,145.12,1091,170.48,1091,199.34Z" transform="translate(-612.26 -16.3)"/><path class="cls-1" d="M717,281.53V80.11h-20V53.83h66.31V80.11H745.72V281.53Zm-20-246.46V16.3h68.81V35.07Zm0,284V300.3h68.81v18.77Z" transform="translate(-612.26 -16.3)"/><path class="cls-1" d="M752,35.07V16.3h90.08V35.07Zm0,284V300.3h90.08v18.77Zm78.82-74.61q0,16.66-8.88,27t-23.74,10.33q-16.3,0-25-10.14t-8.69-27.18V88.65q0-16.31,9.42-26.09t24.27-9.78q15.23,0,23.92,9.78t8.7,26.09ZM802,82.4q0-7.79-4.82-7.78a4.15,4.15,0,0,0-4.08,2.22A12.43,12.43,0,0,0,792,82.4v169q0,7.41,5.56,7.41,4.45,0,4.45-7.41Z" transform="translate(-612.26 -16.3)"/><path class="cls-1" d="M832.05,35.07V16.3H933.39V35.07Zm0,284V300.3H933.39v18.77Zm63.8-140.8V53.83h27.53v227.7H897.5L868.33,159.29V281.53H840.81V53.83h26.43Z" transform="translate(-612.26 -16.3)"/><path class="cls-1" d="M922.13,35.07V16.3h53.79V35.07Zm0,284V300.3h53.79v18.77ZM934.64,53.83h27.52V80.11H934.64Zm-1.25,211.44V90.11h28.77V265.27Z" transform="translate(-612.26 -16.3)"/></g></svg>